<svg xmlns="http://www.w3.org/2000/svg" width="80" height="80" fill="none" viewBox="0 0 80 80"><rect width="70" height="31" x="5" y="44" fill="#8C6E8C"/><rect width="4" height="4" x="9" y="66" fill="#fff"/><rect width="4" height="13" x="18" y="53" fill="#fff"/><rect width="4" height="11" x="36" y="50" fill="#fff"/><rect width="4" height="11" x="45" y="58" fill="#fff"/><rect width="4" height="17" x="54" y="49" fill="#fff"/><rect width="4" height="17" x="62" y="49" fill="#fff"/><rect width="4" height="5" x="58" y="66" fill="#fff"/><rect width="10" height="4" x="22" y="49" fill="#fff"/><path fill="#fff" fill-rule="evenodd" stroke="#8C6E8C" d="M23 9H66V44H14V18H18V13H23V9Z" clip-rule="evenodd"/><rect width="10" height="4" x="22" y="66" fill="#fff"/><rect width="13" height="4" x="36" y="58" fill="#fff"/><rect width="13" height="4" x="36" y="49" fill="#fff"/><rect width="13" height="4" x="36" y="66" fill="#fff"/><rect width="9" height="4" x="53" y="36" fill="#8C6E8C"/><rect width="13" height="4" x="36" y="36" fill="#8C6E8C"/><rect width="9" height="4" x="22" y="36" fill="#8C6E8C"/><rect width="9" height="4" x="53" y="27" fill="#8C6E8C"/><rect width="13" height="4" x="36" y="27" fill="#8C6E8C"/><rect width="9" height="4" x="22" y="27" fill="#8C6E8C"/><rect width="9" height="4" x="53" y="18" fill="#8C6E8C"/><rect width="13" height="4" x="36" y="18" fill="#8C6E8C"/><rect width="9" height="4" x="22" y="18" fill="#8C6E8C"/></svg>